HIERARCHY
ROOT Hips
{
	OFFSET 0.00 0.00 0.00
	CHANNELS 6 Xposition Yposition Zposition Xrotation Yrotation Zrotation
	JOINT LeftUpLeg
	{
		OFFSET 3.28590 0.00000 0.00000
		CHANNELS 3 Xrotation Yrotation Zrotation
		JOINT LeftLeg
		{
			OFFSET 0.00000 -16.12946 0.00000
			CHANNELS 3 Xrotation Yrotation Zrotation
			JOINT LeftFoot
			{
				OFFSET 0.00000 -15.45666 0.00000
				CHANNELS 3 Xrotation Yrotation Zrotation
				JOINT LeftToeBase
				{
					OFFSET 0.00000 -1.41942 5.29737
					CHANNELS 3 Xrotation Yrotation Zrotation
					End Site
					{
						OFFSET 0.00000 0.00000 2.95275
					}
				}
			}
		}
	}
	JOINT RightUpLeg
	{
		OFFSET -3.28590 0.00000 0.00000
		CHANNELS 3 Xrotation Yrotation Zrotation
		JOINT RightLeg
		{
			OFFSET 0.00000 -16.12946 0.00000
			CHANNELS 3 Xrotation Yrotation Zrotation
			JOINT RightFoot
			{
				OFFSET 0.00000 -15.45666 0.00000
				CHANNELS 3 Xrotation Yrotation Zrotation
				JOINT RightToeBase
				{
					OFFSET 0.00000 -1.41942 5.29737
					CHANNELS 3 Xrotation Yrotation Zrotation
					End Site
					{
						OFFSET 0.00000 0.00000 2.95275
					}
				}
			}
		}
	}
	JOINT Spine
	{
		OFFSET 0.00000 0.03937 0.00000
		CHANNELS 3 Xrotation Yrotation Zrotation
		JOINT Spine1
		{
			OFFSET 0.00000 6.25455 0.00000
			CHANNELS 3 Xrotation Yrotation Zrotation
			JOINT Neck
			{
				OFFSET 0.00000 11.77789 0.00000
				CHANNELS 3 Xrotation Yrotation Zrotation
				JOINT Head
				{
					OFFSET 0.00000 7.25432 0.00000
					CHANNELS 3 Xrotation Yrotation Zrotation
					End Site
					{
						OFFSET 0.00000 4.52755 0.00000
					}
				}
			}
			JOINT LeftShoulder
			{
				OFFSET 0.00000 11.77789 0.00000
				CHANNELS 3 Xrotation Yrotation Zrotation
				JOINT LeftArm
				{
					OFFSET 8.12235 -0.00003 0.00000
					CHANNELS 3 Xrotation Yrotation Zrotation
					JOINT LeftForeArm
					{
						OFFSET 10.26986 -0.00004 0.00000
						CHANNELS 3 Xrotation Yrotation Zrotation
						JOINT LeftHand
						{
							OFFSET 10.02459 -0.00004 0.00000
							CHANNELS 3 Xrotation Yrotation Zrotation
							JOINT LeftHandThumb
							{
								OFFSET 0.00000 0.00000 0.00000
								CHANNELS 3 Xrotation Yrotation Zrotation
								End Site
								{
									OFFSET 0.00000 0.00000 3.93700
								}
							}
							JOINT L_Wrist_End
							{
								OFFSET 3.93700 -0.00001 0.00000
								CHANNELS 3 Xrotation Yrotation Zrotation
							}
						}
					}
				}
			}
			JOINT RightShoulder
			{
				OFFSET 0.00000 11.77789 0.00000
				CHANNELS 3 Xrotation Yrotation Zrotation
				JOINT RightArm
				{
					OFFSET -8.12235 -0.00003 0.00000
					CHANNELS 3 Xrotation Yrotation Zrotation
					JOINT RightForeArm
					{
						OFFSET -10.26986 -0.00004 0.00000
						CHANNELS 3 Xrotation Yrotation Zrotation
						JOINT RightHand
						{
							OFFSET -10.02459 -0.00004 0.00000
							CHANNELS 3 Xrotation Yrotation Zrotation
							JOINT RightHandThumb
							{
								OFFSET 0.00000 0.00000 0.00000
								CHANNELS 3 Xrotation Yrotation Zrotation
								End Site
								{
									OFFSET 0.00000 0.00000 3.93700
								}
							}
							JOINT R_Wrist_End
							{
								OFFSET -5.39369 -0.00002 0.00000
								CHANNELS 3 Xrotation Yrotation Zrotation
							}
						}
					}
				}
			}
		}
	}
}
MOTION
Frames: 19
Frame Time: 0.033332
 -1.1080 31.3776 -10.9672 179.8564 1.5105 178.6779 -28.1046 3.5481 11.6647 70.7153 -0.0000 0.0000 -29.6194 8.2491 -45.6103 9.3040 0.0000 -0.0000 -7.9147 2.4054 4.2965 39.7849 -0.0000 0.0000 -29.5837 -10.1551 4.2837 -6.4627 0.0000 -0.0000 0.6669 0.8549 1.6806 3.2186 2.0860 0.8456 0.3175 -4.9344 0.1283 -28.8179 -4.3051 -1.4198 -25.2308 3.6830 15.2362 25.5036 -45.0892 -85.2201 -179.9984 -82.6664 -179.9981 -34.9485 -6.1860 -4.6409 -0.0000 0.0000 -0.0000 -0.0000 0.0000 -0.0000 -4.1273 -8.1136 -9.0374 8.2664 47.0110 75.7874 -179.9949 87.6512 179.9947 -23.6390 17.1919 1.8061 -0.0000 0.0000 -0.0000 -0.0000 0.0000 -0.0000
 -1.1270 31.4079 -10.8998 179.8951 1.4222 178.2078 -26.7260 3.1624 11.6782 68.8494 -0.0000 0.0000 -30.6319 8.0130 -45.2258 8.9271 -0.0000 -0.0000 -8.7442 2.6346 4.8178 41.0440 -0.0000 0.0000 -28.4978 -10.4509 4.3234 -7.4450 0.0000 0.0000 0.4446 0.5868 1.6289 3.3964 1.8546 1.2772 0.3796 -4.4136 0.4948 -28.7509 -3.9675 -1.1358 -24.0751 3.7080 15.4729 25.4937 -44.0341 -85.6425 -179.9983 -82.9696 -179.9981 -34.3478 -6.2436 -3.6136 -0.0000 0.0000 -0.0000 -0.0000 0.0000 -0.0000 -4.3247 -8.5244 -8.7792 8.6096 47.2347 74.9498 -179.9949 87.6563 179.9946 -20.7286 16.3709 1.8031 -0.0000 0.0000 -0.0000 -0.0000 0.0000 -0.0000
 -1.2464 31.9228 -10.9829 -179.6071 0.5536 178.3055 -23.0267 2.7462 10.0994 63.2971 -0.0000 0.0000 -30.1612 8.3687 -44.6845 8.1234 0.0000 -0.0000 -6.4695 2.2706 4.2375 37.4848 -0.0000 0.0000 -24.8571 -10.4712 5.5882 -8.3611 0.0000 0.0000 0.4039 0.1957 1.1135 3.4229 1.4828 1.7473 0.6514 -4.1733 0.5417 -28.4401 -3.9993 -0.7788 -23.2969 3.3870 15.5447 26.7541 -43.7443 -85.6382 -179.9984 -82.4522 -179.9982 -35.1474 -6.5751 -3.6867 -0.0000 0.0000 -0.0000 -0.0000 0.0000 -0.0000 -4.0634 -9.3312 -9.2679 9.1470 46.6123 75.9823 -179.9957 87.1725 179.9955 -19.8749 16.5352 1.7538 -0.0000 0.0000 -0.0000 -0.0000 0.0000 -0.0000
 -1.4180 32.7373 -11.1028 -179.3409 0.5960 178.2333 -18.5200 3.4232 8.8953 55.5720 -0.0000 0.0000 -28.3175 8.1784 -44.4982 7.4369 -0.0000 0.0000 -4.1968 2.5384 3.5704 32.9649 -0.0000 0.0000 -18.0772 -9.6117 8.2557 -10.9757 0.0000 0.0000 0.6198 0.3515 0.9670 2.6840 1.6364 1.9167 0.6992 -4.0122 0.3518 -27.3438 -4.2164 -0.4023 -22.8080 3.6858 15.9181 28.1076 -44.7327 -84.9335 -179.9986 -81.6736 -179.9983 -36.0709 -6.2057 -4.6492 -0.0000 0.0000 -0.0000 -0.0000 0.0000 -0.0000 -3.3868 -10.0627 -9.7864 10.2868 45.7106 77.5259 -179.9969 86.1344 179.9967 -21.3562 17.0441 0.8444 -0.0000 0.0000 -0.0000 -0.0000 0.0000 -0.0000
 -1.6526 33.6561 -11.1685 -179.4942 1.3092 177.9654 -14.1944 4.5042 7.8627 47.2059 -0.0000 0.0000 -27.4601 7.8696 -44.4340 6.8923 -0.0000 -0.0000 -3.6258 0.9706 2.4148 30.3758 -0.0000 0.0000 -9.3425 -6.1586 11.1705 -14.8906 0.0000 0.0000 0.5940 0.5915 1.0517 1.9889 1.8865 2.1001 0.4026 -3.6427 0.1551 -26.0489 -3.8821 -0.2947 -22.2214 4.2529 16.3032 29.1805 -45.3697 -84.4078 -179.9987 -80.7599 -179.9985 -35.6257 -5.6126 -5.2477 -0.0000 0.0000 -0.0000 -0.0000 0.0000 -0.0000 -2.2840 -10.5284 -10.1707 10.8658 45.1583 78.8268 -179.9974 85.3443 179.9972 -22.5746 17.4779 0.5122 -0.0000 0.0000 -0.0000 -0.0000 0.0000 -0.0000
 -1.9715 34.4917 -11.1809 -179.3901 1.9932 178.0903 -9.7009 4.4118 6.0889 39.2645 -0.0000 0.0000 -25.6066 8.5895 -44.2744 6.4953 0.0000 -0.0000 -3.9930 -2.7709 0.2151 29.6199 -0.0000 0.0000 -1.1946 -0.3668 14.0004 -18.5175 0.0000 0.0000 0.5550 0.5493 0.9026 1.9758 1.8434 2.1423 0.0224 -3.1241 0.2815 -25.2353 -2.9310 -0.5559 -21.2213 4.8040 16.7254 29.1958 -45.2854 -84.8354 -179.9988 -80.2621 -179.9985 -34.6655 -5.6100 -5.1983 -0.0000 0.0000 -0.0000 -0.0000 0.0000 -0.0000 -1.9751 -10.5546 -10.5806 11.5891 45.0308 79.5770 -179.9976 84.9235 179.9974 -22.0726 17.6610 0.4506 -0.0000 0.0000 -0.0000 -0.0000 0.0000 -0.0000
 -2.3011 35.0561 -11.1077 -179.3634 2.6277 178.5566 -6.1103 3.5694 4.2509 32.9856 -0.0000 0.0000 -22.1744 9.5321 -41.5599 6.2935 -0.0000 0.0000 -6.1240 -6.3223 -2.8161 31.3560 -0.0000 0.0000 4.6386 6.7371 16.8421 -20.4620 0.0000 0.0000 0.5291 0.4620 0.4776 2.2785 1.7393 1.9295 -0.9826 -2.6954 0.6453 -23.8366 -2.1197 -0.8874 -20.5974 4.8973 17.4800 28.6083 -44.9266 -85.9146 -179.9988 -80.1166 -179.9986 -34.1578 -5.7458 -5.0189 -0.0000 0.0000 -0.0000 -0.0000 0.0000 -0.0000 -1.7145 -10.8426 -10.7924 11.5938 45.3666 79.9124 -179.9976 84.9023 179.9974 -21.3390 17.8307 0.3315 -0.0000 0.0000 -0.0000 -0.0000 0.0000 -0.0000
 -2.5903 35.2026 -10.9364 -179.4485 3.0928 178.7267 -3.9917 2.5720 3.3663 29.3013 -0.0000 0.0000 -18.7077 10.4462 -39.2640 6.9619 -0.0000 -0.0000 -9.5050 -8.0426 -5.7549 35.3117 -0.0000 0.0000 6.0995 12.7687 22.0819 -17.8529 0.0000 0.0000 0.6813 0.3093 0.1532 2.5074 1.5669 1.7309 -1.7707 -2.2073 1.0211 -22.8814 -1.7877 -0.8984 -20.2284 4.4586 18.2120 28.1268 -44.2815 -86.5242 -179.9988 -79.6482 -179.9986 -34.7482 -5.8515 -5.0182 -0.0000 0.0000 -0.0000 -0.0000 0.0000 -0.0000 -1.9626 -10.9322 -10.8427 11.7200 45.6288 80.0150 -179.9976 84.9530 179.9974 -22.2962 17.9941 0.6441 -0.0000 0.0000 -0.0000 -0.0000 0.0000 -0.0000
 -2.8461 34.8899 -10.7079 -179.5172 3.3304 178.4246 -2.6708 0.9300 3.3444 27.4667 -0.0000 0.0000 -13.6964 10.9907 -42.0048 -0.4813 0.0000 -0.0000 -13.5000 -8.1994 -8.0651 41.5199 -0.0000 0.0000 3.1123 15.8660 26.4005 -15.9289 0.0000 0.0000 0.9810 0.1589 0.0987 2.7781 1.4132 1.7440 -2.2848 -1.9265 1.2000 -22.6852 -1.8058 -0.7685 -20.5146 3.9883 18.4373 28.2921 -43.8676 -85.6699 -179.9989 -78.9019 -179.9987 -36.2155 -6.2668 -5.1460 -0.0000 0.0000 -0.0000 -0.0000 0.0000 -0.0000 -1.9361 -10.9774 -10.6929 11.3986 45.5733 80.0297 -179.9976 84.9780 179.9974 -22.7634 17.9809 0.5687 -0.0000 0.0000 -0.0000 -0.0000 0.0000 -0.0000
 -3.0834 34.1469 -10.4127 -179.8772 3.4592 177.9352 -2.8278 0.5916 3.9531 27.6460 -0.0000 0.0000 -20.3462 8.7640 -40.2023 0.9488 0.0000 -0.0000 -18.2993 -7.7918 -10.0205 49.6015 -0.0000 0.0000 -2.2422 14.6804 26.2952 -16.3251 0.0000 0.0000 1.3543 0.0933 0.1093 2.7539 1.3546 1.8795 -2.5581 -1.7319 1.5423 -22.8744 -1.9222 -0.8710 -21.1182 3.6210 18.1667 28.5687 -43.5961 -83.8535 -179.9990 -78.0165 -179.9988 -37.1493 -6.7667 -5.2600 -0.0000 0.0000 -0.0000 -0.0000 0.0000 -0.0000 -1.9341 -10.7506 -10.2521 11.1967 44.7265 79.9422 -179.9976 85.0614 179.9973 -22.0685 17.9437 0.3498 -0.0000 0.0000 -0.0000 -0.0000 0.0000 -0.0000
 -3.3521 33.1150 -10.0185 179.2758 3.4877 178.2265 -5.0713 2.2464 3.5367 30.3638 -0.0000 0.0000 -29.4548 7.9890 -38.3185 5.5429 0.0000 0.0000 -23.8476 -6.5421 -12.6284 58.1434 -0.0000 0.0000 -6.5934 11.1724 25.5044 -15.7820 0.0000 -0.0000 2.0633 -0.0418 -0.1973 1.9951 1.2019 1.6573 -2.6346 -1.4725 1.8432 -23.5928 -2.0918 -1.1305 -22.6970 3.6321 17.4078 29.6441 -43.5263 -81.0387 -179.9991 -77.3084 -179.9988 -37.6188 -7.5945 -5.2211 -0.0000 0.0000 -0.0000 -0.0000 0.0000 -0.0000 -2.4491 -10.3583 -9.9070 11.1714 44.0535 79.8067 -179.9972 85.7199 179.9970 -23.5650 18.0026 0.8001 -0.0000 0.0000 -0.0000 -0.0000 0.0000 -0.0000
 -3.5745 32.0892 -9.5883 178.3380 2.8120 178.9961 -8.2885 4.3094 2.3830 34.1796 -0.0000 0.0000 -37.9077 7.6555 -34.0716 8.5425 -0.0000 0.0000 -28.7921 -4.9807 -15.3306 65.4249 -0.0000 0.0000 -10.0317 7.9963 23.2804 -14.8313 0.0000 0.0000 2.8115 -0.3687 -0.8019 1.2145 0.8572 1.2530 -2.8004 -1.3386 1.8918 -24.1401 -2.6627 -0.9857 -24.4539 3.4559 16.4385 30.2773 -43.2949 -78.7405 -179.9990 -77.6014 -179.9988 -38.8518 -8.3112 -5.2460 -0.0000 0.0000 -0.0000 -0.0000 0.0000 -0.0000 -3.1103 -10.3538 -9.2142 11.3006 43.6280 78.9301 -179.9966 86.5089 179.9963 -24.4464 17.3972 1.4207 -0.0000 0.0000 -0.0000 -0.0000 0.0000 -0.0000
 -3.7079 31.3999 -9.2014 177.1363 1.9528 179.5920 -12.1571 3.4934 1.5301 38.7158 -0.0000 0.0000 -42.5612 7.6952 -33.1596 9.5046 -0.0000 -0.0000 -32.2709 -3.3805 -16.8463 69.6914 -0.0000 0.0000 -11.4230 4.6242 21.6028 -14.2050 0.0000 0.0000 2.7834 -0.7254 -1.3242 1.1038 0.4887 1.1214 -3.3674 -1.3074 1.5885 -24.3230 -3.1391 -0.5649 -25.3468 3.4142 15.6583 29.3751 -42.7728 -78.1437 -179.9989 -78.8436 -179.9987 -39.4050 -8.5054 -4.7089 -0.0000 0.0000 -0.0000 -0.0000 0.0000 -0.0000 -3.3121 -10.6283 -8.7769 10.5618 43.6761 78.3954 -179.9954 87.3772 179.9952 -22.3274 16.7088 1.5833 -0.0000 0.0000 -0.0000 -0.0000 0.0000 -0.0000
 -3.6698 31.2801 -9.0413 177.3038 2.1573 179.3726 -13.9559 4.4756 2.4085 41.9984 -0.0000 0.0000 -42.4027 6.7592 -34.2554 9.0867 -0.0000 -0.0000 -31.9887 -1.4835 -15.6290 69.9715 -0.0000 0.0000 -11.4632 1.6981 19.0723 -13.3839 0.0000 -0.0000 2.3186 -0.4577 -1.1957 2.6466 0.7680 0.9457 -3.4306 -1.1011 1.2828 -25.4197 -3.3184 -0.1334 -25.5279 3.1150 15.1245 28.4561 -41.6143 -78.7816 -179.9988 -79.7800 -179.9986 -37.3249 -8.2159 -3.8462 -0.0000 0.0000 -0.0000 -0.0000 0.0000 -0.0000 -3.0817 -10.4566 -8.2614 9.5887 43.4341 78.8172 -179.9930 88.2727 179.9928 -19.9233 15.9065 1.5455 -0.0000 0.0000 -0.0000 -0.0000 0.0000 -0.0000
 -3.5707 31.6819 -9.0203 177.1150 2.8943 179.1783 -12.6422 4.7582 2.6844 38.6565 -0.0000 0.0000 -39.8932 7.2491 -34.3509 8.7095 -0.0000 0.0000 -30.4129 0.0283 -13.6030 66.9048 -0.0000 0.0000 -10.5445 -0.1921 17.8436 -13.2910 0.0000 0.0000 1.7231 -0.2821 -0.9516 3.2755 0.9373 0.8043 -3.2965 -1.0621 1.2192 -26.2188 -2.9170 -0.3522 -24.9876 3.6311 15.2413 28.1192 -40.6152 -80.1841 -179.9988 -79.9026 -179.9986 -37.0444 -8.1599 -3.6950 -0.0000 0.0000 -0.0000 -0.0000 0.0000 -0.0000 -3.1594 -9.7059 -8.2741 9.2308 44.0042 79.6331 -179.9866 89.1015 179.9864 -19.9321 15.8918 1.5677 -0.0000 0.0000 -0.0000 -0.0000 0.0000 -0.0000
 -3.3692 32.5044 -9.1197 177.0152 3.0460 178.9952 -9.6895 2.8070 2.5057 32.3098 -0.0000 0.0000 -33.8610 9.1150 -34.8678 7.1853 0.0000 0.0000 -27.1440 0.2605 -11.6207 60.8939 -0.0000 0.0000 -8.8776 -0.7486 17.7675 -13.0282 0.0000 0.0000 1.5862 -0.3530 -0.8895 2.9343 0.8744 0.9587 -3.3796 -1.0380 1.2320 -25.7325 -2.3705 -0.6693 -23.9934 4.2948 15.5285 28.5285 -40.4204 -81.5741 -179.9988 -79.7060 -179.9986 -38.4475 -8.3770 -4.0583 -0.0000 0.0000 -0.0000 -0.0000 0.0000 -0.0000 -3.3038 -9.6868 -8.2741 9.2947 45.6205 79.9886 -179.9229 89.8435 179.9227 -21.3499 16.0218 2.3993 -0.0000 0.0000 -0.0000 -0.0000 0.0000 -0.0000
 -3.0348 33.5450 -9.2258 176.9661 2.3570 178.5523 -7.6801 2.2849 3.4828 27.1548 -0.0000 0.0000 -24.7324 9.0158 -37.3552 4.5888 0.0000 -0.0000 -22.7397 0.0692 -9.1489 52.8919 -0.0000 0.0000 -6.1825 -0.1974 17.4542 -13.2172 0.0000 -0.0000 1.7005 -0.3901 -0.9036 2.2585 0.8647 1.3731 -3.5736 -1.3986 1.2786 -24.8049 -2.5156 -0.8457 -22.9829 4.3630 15.9433 28.7707 -41.0378 -83.0194 -179.9988 -79.6728 -179.9986 -38.6256 -8.1480 -4.5445 -0.0000 0.0000 -0.0000 -0.0000 0.0000 -0.0000 -3.1469 -10.2719 -8.2894 9.1235 47.1406 80.6188 -0.0191 89.3675 0.0189 -21.9584 16.1009 2.7187 -0.0000 0.0000 -0.0000 -0.0000 0.0000 -0.0000
 -2.6244 34.5819 -9.2875 176.7412 0.9576 178.0709 -7.9281 3.6133 5.1705 24.8913 -0.0000 0.0000 -14.6170 6.2091 -40.1996 1.2353 0.0000 0.0000 -18.1469 0.4348 -6.3806 44.2331 -0.0000 0.0000 -2.7341 0.6865 16.9551 -13.2705 0.0000 0.0000 1.6179 -0.4365 -0.7606 1.7021 0.8309 1.5914 -3.8060 -1.9356 1.1425 -23.9268 -3.1800 -0.6791 -22.0583 4.2017 16.1891 28.8425 -42.2584 -83.6536 -179.9989 -79.6089 -179.9986 -38.2667 -7.7977 -4.9360 -0.0000 0.0000 -0.0000 -0.0000 0.0000 -0.0000 -2.9789 -10.5145 -8.5295 8.5538 47.6158 82.3220 -0.0068 88.2305 0.0066 -22.2593 16.1565 2.9954 -0.0000 0.0000 -0.0000 -0.0000 0.0000 -0.0000
 -2.2142 35.3996 -9.3106 176.6540 -1.0060 177.4985 -10.1879 4.7354 7.1692 26.0737 -0.0000 0.0000 -6.2552 3.4356 -45.6786 0.9991 0.0000 -0.0000 -13.6205 0.9253 -3.7095 35.9897 -0.0000 0.0000 0.5034 1.3204 16.6490 -12.8714 0.0000 0.0000 1.5469 -0.4524 -0.3224 1.4093 0.8313 1.7966 -3.9907 -2.8176 0.4215 -22.9039 -4.2218 -0.0816 -21.7051 3.9222 16.0941 29.0404 -43.7655 -83.5971 -179.9989 -79.5567 -179.9986 -37.7112 -7.2042 -5.5986 -0.0000 0.0000 -0.0000 -0.0000 0.0000 -0.0000 -2.9005 -10.6970 -9.0708 7.7341 47.4826 84.3636 -0.0041 87.0622 0.0039 -22.4792 15.9687 2.8114 -0.0000 0.0000 -0.0000 -0.0000 0.0000 -0.0000
